HIERARCHY
ROOT Hips
{
	OFFSET 0.00000 0.00000 0.00000
	CHANNELS 6 Xposition Yposition Zposition Zrotation Yrotation Xrotation 
	JOINT LHipJoint
	{
		OFFSET 0 0 0
		CHANNELS 3 Zrotation Yrotation Xrotation
		JOINT LeftHip
		{
			OFFSET 1.58161 -1.81893 0.78828
			CHANNELS 3 Zrotation Yrotation Xrotation
			JOINT LeftKnee
			{
				OFFSET 2.53374 -6.96141 0.00000
				CHANNELS 3 Zrotation Yrotation Xrotation
				JOINT LeftAnkle
				{
					OFFSET 2.63509 -7.23986 0.00000
					CHANNELS 3 Zrotation Yrotation Xrotation
					JOINT LeftToe
					{
						OFFSET 0.14115 -0.38781 2.05350
						CHANNELS 3 Zrotation Yrotation Xrotation
						End Site
						{
							OFFSET 0.00000 -0.00000 1.05543
						}
					}
				}
			}
		}
	}
	JOINT RHipJoint
	{
		OFFSET 0 0 0
		CHANNELS 3 Zrotation Yrotation Xrotation
		JOINT RightHip
		{
			OFFSET -1.11138 -1.81893 0.78828
			CHANNELS 3 Zrotation Yrotation Xrotation
			JOINT RightKnee
			{
				OFFSET -2.58392 -7.09926 0.00000
				CHANNELS 3 Zrotation Yrotation Xrotation
				JOINT RightAnkle
				{
					OFFSET -2.66423 -7.31992 0.00000
					CHANNELS 3 Zrotation Yrotation Xrotation
					JOINT RightToe
					{
						OFFSET -0.18831 -0.51739 2.12114
						CHANNELS 3 Zrotation Yrotation Xrotation
						End Site
						{
							OFFSET -0.00000 -0.00000 1.09845
						}
					}
				}
			}
		}
	}
	JOINT lowerback
	{
		OFFSET 0 0 0
		CHANNELS 3 Zrotation Yrotation Xrotation
		JOINT Chest
		{
			OFFSET -0.01511 1.97958 -0.08829
			CHANNELS 3 Zrotation Yrotation Xrotation
			JOINT Chest2
			{
				OFFSET 0.08344 1.97334 -0.04330
				CHANNELS 3 Zrotation Yrotation Xrotation
				JOINT lowerneck
				{
					OFFSET 0 0 0
					CHANNELS 3 Zrotation Yrotation Xrotation
					JOINT Neck
					{
						OFFSET 0.00559 1.76246 0.31246
						CHANNELS 3 Zrotation Yrotation Xrotation
						JOINT Head
						{
							OFFSET -0.07011 1.80354 -0.30524
							CHANNELS 3 Zrotation Yrotation Xrotation
							End Site
							{
								OFFSET -0.02385 1.83547 -0.13906
							}
						}
					}
				}
				JOINT LeftCollar
				{
					OFFSET 0 0 0
					CHANNELS 3 Zrotation Yrotation Xrotation
					JOINT LeftShoulder
					{
						OFFSET 3.20667 1.30156 -0.60240
CHANNELS 3 Zrotation Xrotation Yrotation
						JOINT LeftElbow
						{
OFFSET 0 -4.956630 0.000000
CHANNELS 3 Zrotation Xrotation Yrotation
							JOINT LeftWrist
							{
OFFSET 0 -3.381770 0.000000
CHANNELS 3 Zrotation Xrotation Yrotation
								JOINT lhand
								{
									OFFSET 0 0 0
CHANNELS 3 Zrotation Xrotation Yrotation
									JOINT LFingers
									{
OFFSET 0 -0.662910 0.000000
CHANNELS 3 Zrotation Xrotation Yrotation
										End Site
										{
OFFSET 0 -0.534450 0.000000
										}
									}
								}
								JOINT LThumb
								{
OFFSET 0 0.000000 0.000000
CHANNELS 3 Zrotation Xrotation Yrotation
									End Site
									{
OFFSET 0 -0.542610 0.542610
									}
								}
							}
						}
					}
				}
				JOINT RightCollar
				{
					OFFSET 0 0 0
					CHANNELS 3 Zrotation Yrotation Xrotation
					JOINT RightShoulder
					{
						OFFSET -3.06877 1.34672 -0.60964
CHANNELS 3 Zrotation Xrotation Yrotation
						JOINT RightElbow
						{
OFFSET 0 -5.083650 0.000000
CHANNELS 3 Zrotation Xrotation Yrotation
							JOINT RightWrist
							{
OFFSET 0 -3.359840 0.000000
CHANNELS 3 Zrotation Xrotation Yrotation
								JOINT rhand
								{
									OFFSET 0 0 0
CHANNELS 3 Zrotation Xrotation Yrotation
									JOINT RFingers
									{
OFFSET 0 -0.820760 0.000000
CHANNELS 3 Zrotation Xrotation Yrotation
										End Site
										{
OFFSET 0 -0.661720 0.000000
										}
									}
								}
								JOINT RThumb
								{
OFFSET 0 0.000000 0.000000
CHANNELS 3 Zrotation Xrotation Yrotation
									End Site
									{
OFFSET 0 -0.671820 0.671820
									}
								}
							}
						}
					}
				}
			}
		}
	}
}
MOTION
Frames: 10
Frame Time: 0.008333333333333333
-0.650100 18.094200 -9.284500 -6.039000 0.515400 7.376400 0.000000 0.000000 0.000000 -12.231700 -0.980200 -14.293100 2.174800 9.221100 26.489500 0.766400 -1.994800 -15.983500 0.311100 -3.585800 -9.914200 0.000000 0.000000 0.000000 27.675200 6.243900 -15.468600 -1.786400 -8.406200 23.954700 -0.233700 -6.965800 -14.226600 -0.336800 -3.729500 10.317000 0.373100 0.263400 -5.410800 5.022200 0.183600 -0.236100 5.015100 0.066000 2.779800 0.855800 1.161700 -15.517300 -5.466100 3.915600 40.943300 -1.944800 0.968700 18.024300 0.000000 -0.000000 0.000000 -1.799500 -2.357000 -33.821500 12.875200 -21.104200 2.408200 34.670300 6.544800 -16.310800 0.000000 0.000000 0.000000 -7.125000 0.000000 0.000000 6.855200 49.442600 -0.754100 0.000000 -0.000000 0.000000 -6.003300 -2.999300 25.110700 -12.655500 -20.780300 -2.329600 -18.525200 -10.046900 -10.135800 0.000000 0.000000 0.000000 7.125000 0.000000 -0.000000 6.025500 19.333800 3.711300
-0.635844 18.103351 -9.293266 -5.966080 0.766332 7.437375 0.000000 0.000000 0.000000 -12.345462 -1.060922 -14.285105 2.134632 9.140956 26.237412 0.766015 -1.850983 -16.011146 0.473797 -4.411517 -12.237805 0.000000 0.000000 0.000000 27.549300 6.068681 -15.583229 -1.774648 -8.380095 23.874556 -0.265970 -6.778251 -14.515293 -0.487167 -4.472857 12.411443 0.167249 0.162834 -5.474472 5.044066 0.057797 -0.200363 5.147261 -0.001140 2.863027 0.757354 1.156884 -15.658419 -5.391446 3.914733 40.962373 -1.892880 0.960416 18.068611 0.000000 0.000000 0.000000 -1.896887 -2.599456 -33.626534 12.860173 -21.081948 2.402709 31.322159 7.154937 -19.300122 0.000000 0.000000 0.000000 -7.125000 0.000000 0.000000 3.134561 52.240520 -0.549405 0.000000 0.000000 0.000000 -6.013800 -3.130498 24.988075 -12.679967 -20.816519 -2.338366 -17.668658 -9.100389 -9.354779 0.000000 0.000000 0.000000 7.125000 0.000000 0.000000 6.637467 20.202093 3.962907
-0.618159 18.109537 -9.296565 -6.005736 0.847059 7.426172 0.000000 0.000000 0.000000 -12.355174 -0.984410 -14.227540 2.106601 9.084716 26.060837 0.772393 -2.047487 -16.036475 0.473329 -4.412517 -12.240324 0.000000 0.000000 0.000000 27.540886 5.871688 -15.595846 -1.761692 -8.351026 23.785424 -0.273408 -6.647314 -14.496465 -0.485488 -4.467752 12.396422 0.117798 0.117861 -5.427886 5.073438 0.000928 -0.190939 5.201685 -0.030477 2.851839 0.731456 1.156051 -15.742649 -5.417138 3.936288 40.983762 -1.897293 0.959359 18.106250 0.000000 0.000000 0.000000 -1.878734 -2.684028 -33.727320 12.922976 -21.174218 2.425386 27.787782 6.950363 -22.375521 0.000000 0.000000 0.000000 -7.125000 0.000000 0.000000 -1.239661 54.923271 0.323236 0.000000 0.000000 0.000000 -6.002618 -3.156903 25.091713 -12.654586 -20.778985 -2.329342 -17.688442 -9.198371 -9.520593 0.000000 0.000000 0.000000 7.125000 0.000000 0.000000 6.621978 20.028766 3.979912
-0.598826 18.112403 -9.297067 -6.048697 0.701075 7.356050 0.000000 0.000000 0.000000 -12.374019 -0.795510 -14.099227 2.083678 9.038234 25.914928 0.775747 -2.266823 -16.026565 0.387645 -3.995357 -11.063925 0.000000 0.000000 0.000000 27.513461 5.754271 -15.508942 -1.748598 -8.321483 23.694957 -0.280752 -6.441740 -14.406453 -0.511150 -4.582645 12.721780 0.230176 0.176353 -5.205016 4.955219 0.085248 -0.252053 5.015535 0.016963 2.655919 0.866910 1.172195 -15.736087 -5.381227 3.902674 41.073848 -1.915151 0.971135 18.156972 0.000000 0.000000 0.000000 -1.634881 -2.608493 -33.935664 13.002211 -21.290336 2.454072 24.010578 6.214752 -25.496152 0.000000 0.000000 0.000000 -7.125000 0.000000 0.000000 -6.400318 57.424116 1.986707 0.000000 0.000000 0.000000 -5.759670 -3.027975 24.962912 -12.609967 -20.713079 -2.313473 -17.763696 -8.825044 -9.395776 0.000000 0.000000 0.000000 7.125000 0.000000 0.000000 6.568981 20.153970 3.929069
-0.586107 18.116965 -9.313991 -6.047799 0.825448 7.557104 0.000000 0.000000 0.000000 -12.369817 -0.836626 -14.367723 2.067621 9.005445 25.812423 0.764498 -2.609946 -15.841089 0.300151 -3.518053 -9.725117 0.000000 0.000000 0.000000 27.437843 5.724794 -15.786359 -1.735242 -8.291313 23.602618 -0.261296 -6.490780 -14.166802 -0.509111 -4.573740 12.696544 -0.027379 0.117971 -5.355854 5.040026 0.016607 -0.266781 5.248865 -0.021858 2.731441 0.823501 1.172323 -15.703192 -5.423590 3.929694 40.975775 -1.918153 0.970638 18.092435 0.000000 0.000000 0.000000 -1.736787 -2.798620 -34.016107 13.058490 -21.372900 2.474547 19.874323 5.030620 -28.427950 0.000000 0.000000 0.000000 -7.125000 0.000000 0.000000 -12.409708 59.464327 4.468259 0.000000 0.000000 0.000000 -5.819360 -3.136948 24.811283 -12.589771 -20.683120 -2.306311 -17.539010 -8.289277 -9.032217 0.000000 0.000000 0.000000 7.125000 0.000000 0.000000 6.732991 20.544982 3.968767
-0.572299 18.120965 -9.326043 -6.085822 0.842834 7.664632 0.000000 0.000000 0.000000 -12.347964 -0.810456 -14.509175 2.056891 8.983638 25.744047 0.754908 -2.833360 -15.699926 0.256123 -3.254815 -8.989111 0.000000 0.000000 0.000000 27.411848 5.685490 -15.918452 -1.720628 -8.258046 23.500741 -0.240167 -6.551402 -13.907717 -0.471872 -4.405040 12.219203 -0.209553 0.120723 -5.477606 5.096957 0.027799 -0.298042 5.415309 -0.018906 2.766315 0.784446 1.135754 -15.507180 -5.419046 3.875832 40.885079 -1.915279 0.947605 17.981357 0.000000 0.000000 0.000000 -1.752234 -2.808364 -34.190686 13.146930 -21.502193 2.506889 11.314184 1.305118 -33.021759 0.000000 0.000000 0.000000 -7.125000 0.000000 0.000000 -25.214440 61.697393 10.789031 0.000000 0.000000 0.000000 -5.814881 -2.982329 24.817326 -12.698470 -20.843715 -2.344912 -17.614233 -8.674852 -9.418170 0.000000 0.000000 0.000000 7.125000 0.000000 0.000000 6.675929 20.139648 3.995884
-0.559777 18.123805 -9.330985 -6.071991 0.819214 7.657467 0.000000 0.000000 0.000000 -12.385322 -0.797656 -14.500218 2.056247 8.982295 25.739796 0.750861 -2.927901 -15.640450 0.281243 -3.408957 -9.419753 0.000000 0.000000 0.000000 27.354460 5.587486 -15.889053 -1.702753 -8.217374 23.376295 -0.229885 -6.599077 -13.798424 -0.452941 -4.317636 11.972039 -0.350084 0.167715 -5.457637 5.040411 0.103957 -0.355476 5.440851 0.019753 2.688049 0.860719 1.093062 -15.309153 -5.358117 3.753585 40.879659 -1.923254 0.922463 17.915908 0.000000 0.000000 0.000000 -1.576898 -2.676344 -34.458571 13.261051 -21.668466 2.548895 9.465185 0.385772 -34.152569 0.000000 0.000000 0.000000 -7.125000 0.000000 0.000000 -28.156668 62.285599 12.353483 0.000000 0.000000 0.000000 -5.671469 -2.572530 24.991677 -12.936184 -21.193411 -2.430360 -17.858887 -9.362106 -9.627938 0.000000 0.000000 0.000000 7.125000 0.000000 0.000000 6.499950 19.906608 3.923406
-0.545931 18.126332 -9.337446 -6.198431 0.752899 7.674004 0.000000 0.000000 0.000000 -12.269346 -0.791943 -14.527237 2.057714 8.985303 25.749355 0.748788 -2.948877 -15.614925 0.338292 -3.734052 -10.329991 0.000000 0.000000 0.000000 27.447490 5.563883 -15.854327 -1.681042 -8.167509 23.224046 -0.221340 -6.634387 -13.702381 -0.438236 -4.247608 11.774304 -0.307058 0.204913 -5.421164 5.026209 0.152353 -0.353308 5.404418 0.044858 2.665246 0.924811 1.094146 -15.326738 -5.353884 3.729858 40.862642 -1.936918 0.923189 17.910089 0.000000 0.000000 0.000000 -1.461236 -2.710656 -34.535761 13.361228 -21.814161 2.586016 9.318966 0.264846 -34.362676 0.000000 0.000000 0.000000 -7.125000 0.000000 0.000000 -28.526476 62.429912 12.627259 0.000000 0.000000 0.000000 -5.560435 -2.414708 25.158856 -13.073042 -21.394127 -2.479933 -17.919957 -9.418853 -9.386477 0.000000 0.000000 0.000000 7.125000 0.000000 0.000000 6.457483 20.154241 3.861435
-0.526423 18.130390 -9.349922 -6.431113 0.610143 7.741178 0.000000 0.000000 0.000000 -12.076944 -0.738072 -14.649664 2.059230 8.988360 25.758962 0.748794 -2.923059 -15.618822 0.365846 -3.885065 -10.753550 0.000000 0.000000 0.000000 27.623481 5.604258 -15.883721 -1.659676 -8.117938 23.072990 -0.214834 -6.576761 -13.542239 -0.423678 -4.177243 11.575811 -0.136069 0.237722 -5.403673 5.088784 0.182962 -0.319706 5.375334 0.061087 2.687715 0.880005 1.119085 -15.409508 -5.374130 3.791689 40.829148 -1.925547 0.936558 17.916537 0.000000 0.000000 0.000000 -1.480288 -2.875217 -34.423451 13.408250 -21.882395 2.603450 9.242840 0.244845 -34.437285 0.000000 0.000000 0.000000 -7.125000 0.000000 0.000000 -28.683476 62.474828 12.733085 0.000000 0.000000 0.000000 -5.531787 -2.543538 25.259760 -13.015424 -21.309772 -2.458952 -18.020683 -9.352788 -9.427150 0.000000 0.000000 0.000000 7.125000 0.000000 0.000000 6.385223 20.105727 3.824620
-0.512804 18.135482 -9.354166 -6.480415 0.641006 7.701667 0.000000 0.000000 0.000000 -12.062362 -0.600218 -14.672873 2.059767 8.989501 25.762503 0.752347 -3.106744 -15.630064 0.379304 -3.955158 -10.950638 0.000000 0.000000 0.000000 27.642808 5.494475 -15.798449 -1.639242 -8.070230 22.927784 -0.211025 -6.578790 -13.483987 -0.417961 -4.149506 11.497624 -0.233456 0.225842 -5.389690 5.106635 0.171517 -0.286410 5.449403 0.053181 2.715075 0.863868 1.116720 -15.411669 -5.352415 3.786409 40.851572 -1.914313 0.934506 17.928810 0.000000 0.000000 0.000000 -1.429985 -2.946520 -34.520003 13.456931 -21.953006 2.621662 9.322353 0.199695 -34.433380 0.000000 0.000000 0.000000 -7.125000 0.000000 0.000000 -28.596543 62.491720 12.702448 0.000000 0.000000 0.000000 -5.434000 -2.598172 25.197539 -12.928183 -21.181848 -2.427322 -18.138816 -9.411427 -9.631784 0.000000 0.000000 0.000000 7.125000 0.000000 0.000000 6.300139 19.885103 3.804389
